<svg width="100" height="100" viewBox="0 0 100 100" fill="none" xmlns="http://www.w3.org/2000/svg">
<circle cx="50" cy="50" r="50" fill="#E97C00"/>
<path d="M37.928 76C37.2453 76 36.648 75.7653 36.136 75.296C35.6667 74.784 35.432 74.1867 35.432 73.504V28.512C35.432 27.7867 35.6667 27.1893 36.136 26.72C36.6053 26.2507 37.2027 26.016 37.928 26.016H67.944C68.6693 26.016 69.2667 26.2507 69.736 26.72C70.2053 27.1467 70.44 27.7227 70.44 28.448C70.44 29.088 70.2053 29.6427 69.736 30.112C69.2667 30.5813 68.6693 30.816 67.944 30.816H40.424V48.48H60.456C61.1813 48.48 61.7787 48.7147 62.248 49.184C62.7173 49.6533 62.952 50.2293 62.952 50.912C62.952 51.5947 62.7173 52.1707 62.248 52.64C61.7787 53.1093 61.1813 53.344 60.456 53.344H40.424V73.504C40.424 74.1867 40.1893 74.784 39.72 75.296C39.2507 75.7653 38.6533 76 37.928 76Z" fill="white"/>
</svg>
